<svg width="258" height="307" viewBox="0 0 258 307" fill="none" xmlns="http://www.w3.org/2000/svg">
<g clip-path="url(#clip0_1_814)">
<rect width="258" height="307" fill="white"/>
<path d="M99.9257 251.974C94.7921 246.687 87.3527 243.656 79.5151 243.656L79.2128 243.656C74.0504 243.658 68.9801 242.291 64.5205 239.695L64.0564 239.425L64.4302 239.04C66.4537 236.95 68.1433 234.561 69.4399 231.958C68.519 232.815 67.4207 233.46 66.2227 233.846C65.0247 234.233 63.7563 234.352 62.5072 234.194C61.1885 234.037 59.9225 233.584 58.8042 232.869C57.6858 232.154 56.7442 231.195 56.05 230.065C53.3107 225.627 50.0453 219.33 50.0453 214.533C50.0496 210.478 50.8999 206.468 52.542 202.76C54.1841 199.051 56.582 195.725 59.5828 192.993C61.4826 191.283 63.0001 189.192 64.0363 186.857C65.0724 184.521 65.604 181.994 65.5965 179.44L65.595 179.077C65.5944 175.714 66.006 172.364 66.8204 169.101L66.9031 168.771L67.2427 168.783C69.4321 168.857 71.6227 168.674 73.7692 168.237C71.7558 167.991 69.7861 167.467 67.916 166.683L67.5508 166.535L67.6747 166.161C76.2195 160.879 95.5074 163.614 106.703 138.039C115.781 117.301 147.81 156.448 147.81 179.077C147.81 181.386 145.522 184.437 147.235 185.963C165.755 202.46 152.976 213.054 148.948 223.713C147.992 226.242 150.064 229.019 150.064 231.755C150.064 232.219 150.052 232.699 150.029 233.179L149.993 233.919L149.376 233.508C148.154 232.709 147.022 231.782 145.998 230.742C147.06 233.183 147.561 235.83 147.463 238.489C147.365 241.148 146.671 243.751 145.433 246.107C143.492 249.765 141.614 252.383 139.852 253.889C134.207 258.713 126.93 261.201 119.508 260.845C112.087 260.489 105.082 257.316 99.9257 251.974H99.9257Z" fill="#FFD233"/>
<path d="M130.931 307C131.058 307 131.18 306.954 131.275 306.872C131.37 306.789 131.432 306.675 131.45 306.55C131.472 306.394 133.655 290.674 131.695 269.783C129.884 250.489 124.07 222.699 106.653 199.875C106.611 199.821 106.559 199.774 106.5 199.74C106.44 199.705 106.374 199.682 106.306 199.673C106.238 199.664 106.168 199.668 106.101 199.686C106.035 199.703 105.972 199.734 105.917 199.776C105.863 199.817 105.817 199.87 105.782 199.929C105.747 199.989 105.725 200.054 105.715 200.122C105.706 200.191 105.711 200.26 105.728 200.327C105.746 200.393 105.777 200.456 105.819 200.51C123.085 223.137 128.853 250.723 130.65 269.88C132.599 290.651 130.434 306.247 130.411 306.402C130.401 306.477 130.407 306.552 130.428 306.624C130.449 306.696 130.486 306.763 130.535 306.82C130.584 306.876 130.645 306.922 130.714 306.953C130.782 306.984 130.856 307 130.931 307V307Z" fill="#3F3D56"/>
<path d="M116.718 232.069C116.829 232.069 116.937 232.034 117.026 231.969C117.116 231.904 117.183 231.812 117.217 231.707C117.251 231.602 117.252 231.489 117.217 231.383C117.183 231.278 117.116 231.186 117.027 231.121C112.064 227.767 106.703 225.042 101.066 223.009C92.2607 219.79 78.8703 216.872 65.0852 221.253C65.0195 221.273 64.9584 221.307 64.9056 221.351C64.8528 221.395 64.8093 221.45 64.7775 221.511C64.7458 221.572 64.7264 221.639 64.7206 221.707C64.7147 221.776 64.7224 221.845 64.7433 221.911C64.7643 221.976 64.798 222.037 64.8425 222.09C64.887 222.142 64.9414 222.186 65.0028 222.217C65.0641 222.249 65.131 222.268 65.1997 222.274C65.2685 222.28 65.3377 222.272 65.4034 222.251C78.906 217.96 92.0537 220.83 100.706 223.993C106.251 225.991 111.527 228.67 116.41 231.969C116.499 232.034 116.607 232.069 116.718 232.069Z" fill="#3F3D56"/>
<path d="M140.726 172.365C140.734 172.255 140.707 172.144 140.648 172.05C140.59 171.956 140.503 171.883 140.4 171.842C140.298 171.8 140.185 171.792 140.077 171.818C139.969 171.845 139.873 171.905 139.802 171.989C136.094 176.69 132.985 181.833 130.549 187.3C126.699 195.838 122.82 208.963 126.203 223.007C126.219 223.074 126.248 223.137 126.288 223.193C126.329 223.248 126.38 223.296 126.439 223.332C126.498 223.368 126.563 223.392 126.631 223.402C126.699 223.413 126.769 223.41 126.836 223.394C126.903 223.378 126.966 223.349 127.022 223.309C127.077 223.268 127.124 223.217 127.16 223.158C127.196 223.1 127.22 223.034 127.231 222.966C127.242 222.898 127.239 222.829 127.223 222.762C123.909 209.006 127.723 196.119 131.505 187.73C133.901 182.351 136.957 177.29 140.604 172.664C140.675 172.58 140.718 172.475 140.726 172.365Z" fill="#3F3D56"/>
<path d="M241.903 306.445H200.146L199.966 306.12C199.432 305.154 198.917 304.129 198.435 303.076C194.134 293.882 192.316 283.366 190.712 274.088L189.504 267.094C189.357 266.247 189.468 265.376 189.82 264.592C190.173 263.808 190.752 263.147 191.483 262.693C192.214 262.239 193.064 262.014 193.924 262.045C194.784 262.077 195.615 262.364 196.311 262.87C202.657 267.481 209.006 272.087 215.357 276.689C217.761 278.436 220.508 280.458 223.138 282.643C223.392 281.412 223.657 280.178 223.922 278.961C224.105 278.121 224.535 277.354 225.157 276.759C225.779 276.164 226.565 275.768 227.414 275.622C228.262 275.475 229.136 275.585 229.922 275.937C230.707 276.288 231.37 276.866 231.825 277.597L236.711 285.434C240.274 291.158 243.42 296.798 242.779 302.881C242.782 302.955 242.776 303.029 242.762 303.102C242.634 304.101 242.396 305.083 242.053 306.031L241.903 306.445Z" fill="#F0F0F0"/>
<path d="M222.449 142.528L214.39 112.744C214.045 111.483 213.217 110.409 212.085 109.752C210.953 109.095 209.608 108.909 208.34 109.234C207.684 109.402 207.069 109.701 206.533 110.114C205.997 110.527 205.55 111.045 205.221 111.636C204.892 112.227 204.686 112.878 204.618 113.551C204.549 114.224 204.618 114.903 204.821 115.548L214.142 146.23L219.019 165.111C218.308 165.653 217.782 166.4 217.512 167.25C217.241 168.101 217.24 169.013 217.507 169.865C217.774 170.716 218.298 171.465 219.006 172.009C219.714 172.553 220.573 172.867 221.466 172.906C222.358 172.946 223.242 172.71 223.996 172.232C224.75 171.753 225.338 171.053 225.68 170.229C226.022 169.405 226.102 168.495 225.908 167.624C225.715 166.753 225.258 165.963 224.598 165.36L222.449 142.528Z" fill="#FFCBA5"/>
<path d="M154.635 136.113L179.121 117.297C180.156 116.497 180.834 115.322 181.01 114.027C181.185 112.732 180.843 111.42 180.058 110.374C179.652 109.833 179.14 109.38 178.553 109.043C177.966 108.706 177.316 108.492 176.643 108.413C175.971 108.335 175.289 108.395 174.64 108.588C173.992 108.782 173.389 109.105 172.869 109.539L148.034 129.863L132.422 141.577C131.65 141.128 130.758 140.928 129.867 141.004C128.977 141.079 128.131 141.426 127.445 141.998C126.759 142.57 126.266 143.339 126.033 144.201C125.8 145.062 125.839 145.974 126.143 146.813C126.447 147.652 127.003 148.377 127.734 148.89C128.466 149.403 129.337 149.678 130.231 149.679C131.125 149.68 131.997 149.406 132.729 148.895C133.461 148.383 134.018 147.659 134.324 146.821L154.635 136.113Z" fill="#FFCBA5"/>
<path d="M174.592 140.439L173.513 164.508L207.402 157.153C204.517 147.482 202.556 145.832 204.724 139.101L174.592 140.439Z" fill="#FFCBA5"/>
<path d="M195.43 96.3134H184.138L179.288 104.599L176.978 104.472C175.847 104.409 174.716 104.578 173.654 104.967C172.591 105.356 171.619 105.957 170.797 106.734C169.975 107.511 169.32 108.447 168.872 109.485C168.425 110.523 168.194 111.641 168.194 112.771L171.041 117.177C171.041 117.177 165.949 126.038 173.284 130.397C173.284 130.397 171.976 138.609 173.284 138.521C174.592 138.433 177.605 136.761 174.592 138.433C171.579 140.104 171.803 140.329 172.193 140.718L172.583 141.107L204.267 146.419C204.267 146.419 205.193 140.286 205.293 139.192C205.393 138.099 204.724 140.773 205.393 138.099C206.063 135.424 207.067 136.427 206.063 135.424C205.058 134.421 212.571 121.997 209.484 117.177L214.433 112.358C214.433 107.735 206.997 103.987 202.367 103.987H201.774L195.43 96.3134Z" fill="#6A00BF"/>
<path d="M168.223 297.166H163.652L161.478 279.564L168.223 279.564L168.223 297.166Z" fill="#A0616A"/>
<path d="M154.428 303.9C154.43 304.411 154.634 304.901 154.996 305.263C155.357 305.624 155.847 305.829 156.359 305.832H164.963L165.23 305.281L166.447 302.773L166.918 305.281L167.022 305.832H170.268L170.221 305.277L169.356 294.916L168.224 294.846L163.333 294.557L162.131 294.484V297.577C161.22 298.546 154.065 302.206 154.428 303.9Z" fill="#2F2E41"/>
<path d="M236.148 285.213L232.304 287.682L220.938 274.053L226.611 270.409L236.148 285.213Z" fill="#A0616A"/>
<path d="M228.195 298.328C228.474 298.757 228.911 299.058 229.411 299.167C229.911 299.276 230.434 299.184 230.867 298.91L238.102 294.262L238.028 293.654L237.693 290.888L239.448 292.742L239.834 293.15L242.563 291.396L242.223 290.954L235.881 282.708L234.892 283.261L230.622 285.66L229.571 286.247L231.248 288.849C231.006 290.156 226.972 297.1 228.195 298.328Z" fill="#2F2E41"/>
<path d="M257.468 306.767L115.945 306.905C115.804 306.904 115.669 306.848 115.569 306.748C115.469 306.648 115.413 306.512 115.413 306.371C115.413 306.23 115.469 306.095 115.569 305.995C115.669 305.895 115.804 305.838 115.945 305.838L257.468 305.7C257.61 305.701 257.745 305.757 257.845 305.857C257.944 305.957 258 306.092 258 306.234C258 306.375 257.944 306.51 257.845 306.61C257.745 306.71 257.61 306.766 257.468 306.767Z" fill="#CACACA"/>
<path d="M206.871 154.434C206.871 154.434 185.208 165.876 173.75 158.07C173.75 158.07 171.244 170.191 170.24 171.193C169.235 172.196 167.635 172.633 168.77 173.752C169.905 174.871 170.536 176.382 168.379 178.3C166.222 180.219 164.071 179.611 166.151 181.586C168.231 183.562 159.861 232.035 159.861 232.035C159.861 232.035 161.2 277.112 159.861 278.475C158.522 279.839 156.732 280.144 158.464 281.83C160.196 283.516 160.196 282.208 160.196 284.533V286.859L160.988 289.17H171.859C171.859 289.17 174.482 286.127 171.859 283.484C169.235 280.841 172.657 280.118 173.457 277.638C174.257 275.158 175.596 277.833 174.257 275.158C172.918 272.484 172.275 272.993 172.262 271.234C172.248 269.475 192.001 200.611 192.001 200.611L194.394 238.727L223.171 280.469L231.642 274.126C231.642 274.126 225.475 265.458 226.917 264.266C228.359 263.074 222.666 261.58 224.461 260.235C226.257 258.891 221.935 257.536 223.564 255.754C225.192 253.972 221.32 249.481 219.076 249.481C216.832 249.481 213.683 241.994 213.683 241.994L218.384 182.849L206.871 154.434Z" fill="#2F2E41"/>
<path d="M183.91 71.9843C183.757 72.1853 182.536 72.0771 181.067 71.8629C178.163 71.4395 177.767 71.9426 175.596 73.9144C172.451 76.7707 174.24 94.192 172.694 97.9667L172.195 98.334C173.185 98.1452 174.158 97.8734 175.102 97.5216C175.636 95.8406 176.171 94.1541 176.71 92.4745C177.218 93.7814 177.538 95.1538 177.659 96.5506C178.407 96.2564 179.15 95.5367 182.273 94.5716C183.846 93.5062 195.226 92.4349 196.689 91.9662C200.401 79.353 194.418 74.2521 183.91 71.9843Z" fill="#2F2E41"/>
<path d="M187.753 91.4343C193.758 91.4343 198.627 86.573 198.627 80.5764C198.627 74.5798 193.758 69.7185 187.753 69.7185C181.747 69.7185 176.878 74.5798 176.878 80.5764C176.878 86.573 181.747 91.4343 187.753 91.4343Z" fill="#FFCBA5"/>
<path d="M194.599 71.0274C193.986 70.9371 193.396 70.7306 192.861 70.419C192.596 70.259 192.381 70.0278 192.241 69.7517C192.101 69.4756 192.042 69.1658 192.07 68.8576C192.204 68.0862 193.077 67.6255 193.86 67.6724C194.639 67.7846 195.38 68.0838 196.018 68.5444C195.948 67.7988 195.629 67.0984 195.112 66.5557C194.595 66.0129 193.911 65.6593 193.169 65.5516C194.198 65.4963 195.269 65.4474 196.22 65.8428C197.172 66.2381 197.966 67.2171 197.794 68.2322C199.395 68.0263 200.973 69.1398 201.634 70.6098C202.294 72.0798 202.163 73.8061 201.636 75.3287C201.583 75.5619 201.482 75.7812 201.337 75.9717C201.193 76.1622 201.009 76.3195 200.799 76.4329C200.26 76.637 199.681 76.2948 199.214 75.9574C196.776 74.1949 194.557 72.1486 192.604 69.8619" fill="#2F2E41"/>
<path d="M199.34 92.12C198.879 92.3367 199.119 93.1429 198.761 93.504C198.605 93.6569 198.418 93.7733 198.212 93.845C198.158 93.1721 198.001 92.5114 197.746 91.886C197.7 91.7724 197.623 91.6453 197.502 91.6554C197.361 91.6721 197.325 91.8559 197.321 91.993C197.293 92.6729 197.142 93.3422 196.876 93.9687C196.873 93.9754 196.869 93.9854 196.866 93.9921C196.762 93.9887 196.655 93.9854 196.555 93.982C195.778 93.9519 194.057 91.9596 193.675 92.6348C195.021 90.2514 196.662 86.6677 196.913 83.9432C197 83.3728 196.958 82.7902 196.789 82.2383C196.701 81.9638 196.536 81.7202 196.313 81.5365C196.091 81.3528 195.82 81.2367 195.533 81.202C195.392 81.1956 195.251 81.2204 195.12 81.2748C194.99 81.3291 194.873 81.4116 194.778 81.5164C194.683 81.6212 194.612 81.7456 194.571 81.8808C194.53 82.016 194.519 82.1587 194.539 82.2985L194.345 82.2718C192.544 80.8076 194.097 78.2636 192.001 77.2574C191.292 76.9164 186.946 78.0563 186.179 77.8558C186.163 77.0494 185.998 76.2528 185.694 75.5057C185.647 75.392 185.57 75.265 185.449 75.275C185.309 75.2918 185.272 75.4756 185.269 75.6127C185.24 76.2926 185.089 76.9618 184.823 77.5883C183.761 77.4379 182.68 77.4947 181.639 77.7555C180.722 77.9962 179.852 78.4107 178.931 78.6313C178.476 78.7706 177.997 78.8157 177.524 78.764C177.051 78.7123 176.593 78.5647 176.179 78.3304C175.01 77.5482 174.806 75.8166 175.389 74.5396C175.81 73.7202 176.38 72.9857 177.069 72.3734C177.595 71.8652 178.141 71.3772 178.686 70.8891C179.175 70.4512 179.664 70.0133 180.153 69.5753C180.768 68.9971 181.424 68.4631 182.115 67.9774C183.218 67.2554 184.457 66.7661 185.757 66.5396C187.056 66.3131 188.388 66.3542 189.671 66.6603C191.211 67.028 193.27 66.5099 194.68 67.2286C195.416 67.6063 197.047 69.0538 197.693 69.5686C199.347 70.8824 198.228 69.8119 200.037 70.5715C204.35 72.3827 202.443 90.6617 199.34 92.12Z" fill="#2F2E41"/>
<path d="M78.9373 171.37C116.182 171.37 146.375 141.223 146.375 104.034C146.375 66.8453 116.182 36.6979 78.9373 36.6979C41.6924 36.6979 11.4994 66.8453 11.4994 104.034C11.4994 141.223 41.6924 171.37 78.9373 171.37Z" fill="white"/>
<path d="M78.9373 172.042C41.3808 172.042 10.8263 141.534 10.8263 104.034C10.8263 66.5342 41.3808 36.0257 78.9373 36.0257C116.494 36.0257 147.048 66.5342 147.048 104.034C147.048 141.534 116.494 172.042 78.9373 172.042ZM78.9373 37.3699C42.1232 37.3699 12.1726 67.2754 12.1726 104.034C12.1726 140.793 42.1232 170.698 78.9373 170.698C115.751 170.698 145.702 140.793 145.702 104.034C145.702 67.2754 115.751 37.3699 78.9373 37.3699Z" fill="#F4F4F5"/>
<path d="M69.7374 139.08C68.5728 139.08 67.4243 138.809 66.3827 138.289C65.3412 137.768 64.4352 137.013 63.7367 136.083L45.3386 111.589C44.7476 110.802 44.3176 109.906 44.0731 108.953C43.8287 108.001 43.7746 107.009 43.9139 106.035C44.0533 105.062 44.3833 104.125 44.8853 103.278C45.3872 102.432 46.0512 101.693 46.8393 101.103C47.6273 100.512 48.5241 100.083 49.4784 99.839C50.4327 99.5949 51.4258 99.5409 52.401 99.68C53.3762 99.8192 54.3144 100.149 55.162 100.65C56.0096 101.151 56.7501 101.814 57.3411 102.601L69.3778 118.624L100.292 72.323C101.397 70.6714 103.112 69.5252 105.063 69.1364C107.013 68.7475 109.038 69.1479 110.693 70.2494C112.348 71.3509 113.497 73.0634 113.887 75.0105C114.278 76.9576 113.878 78.9799 112.776 80.6328L75.9797 135.744C75.3141 136.741 74.4189 137.563 73.369 138.143C72.3192 138.723 71.1455 139.044 69.9462 139.077C69.8766 139.078 69.807 139.08 69.7374 139.08Z" fill="#F4F4F5"/>
<path d="M148.418 40.905C148.606 39.6176 147.255 38.3558 145.402 38.0865C143.549 37.8172 141.894 38.6426 141.706 39.93C141.519 41.2173 142.869 42.4792 144.723 42.7485C146.576 43.0178 148.231 42.1924 148.418 40.905Z" fill="#990ECA"/>
<path d="M170.485 38.7551C170.672 37.4678 169.322 36.2059 167.468 35.9366C165.615 35.6674 163.96 36.4927 163.773 37.7801C163.585 39.0674 164.936 40.3293 166.789 40.5986C168.643 40.8678 170.297 40.0425 170.485 38.7551Z" fill="#3F3D56"/>
<path d="M142.375 23.0673C142.563 21.7799 141.213 20.518 139.359 20.2488C137.506 19.9795 135.851 20.8048 135.664 22.0922C135.476 23.3796 136.826 24.6415 138.68 24.9108C140.533 25.18 142.188 24.3547 142.375 23.0673Z" fill="#FF6584"/>
<path d="M132.787 15.7606C132.796 14.5787 132.136 13.6156 131.312 13.6094C130.489 13.6032 129.814 14.5562 129.805 15.7381C129.796 16.9199 130.457 17.8831 131.28 17.8893C132.103 17.8955 132.778 16.9424 132.787 15.7606Z" fill="#990ECA"/>
<path d="M129.535 2.15124C129.544 0.969375 128.884 0.00624224 128.061 2.521e-05C127.237 -0.00619182 126.563 0.946861 126.554 2.12872C126.545 3.31059 127.205 4.27372 128.028 4.27994C128.852 4.28615 129.526 3.3331 129.535 2.15124Z" fill="#3F3D56"/>
<path d="M154.821 26.1027C154.83 24.9209 154.17 23.9578 153.347 23.9515C152.523 23.9453 151.849 24.8984 151.84 26.0802C151.831 27.2621 152.491 28.2252 153.314 28.2314C154.138 28.2377 154.813 27.2846 154.821 26.1027Z" fill="#990ECA"/>
<path d="M144.158 31.4189C144.167 30.2371 143.506 29.274 142.683 29.2677C141.86 29.2615 141.185 30.2146 141.176 31.3964C141.167 32.5783 141.827 33.5414 142.651 33.5476C143.474 33.5538 144.149 32.6008 144.158 31.4189Z" fill="#FF6584"/>
<path d="M159.002 41.2446C159.011 40.0628 158.351 39.0996 157.527 39.0934C156.704 39.0872 156.029 40.0403 156.02 41.2221C156.011 42.404 156.671 43.3671 157.495 43.3733C158.318 43.3795 158.993 42.4265 159.002 41.2446Z" fill="#3F3D56"/>
<path d="M21.8647 200.427C22.0523 199.139 20.7019 197.877 18.8485 197.608C16.9951 197.339 15.3405 198.164 15.1529 199.452C14.9653 200.739 16.3157 202.001 18.1691 202.27C20.0225 202.539 21.6771 201.714 21.8647 200.427Z" fill="#990ECA"/>
<path d="M43.9314 198.277C44.119 196.989 42.7686 195.727 40.9152 195.458C39.0618 195.189 37.4073 196.014 37.2197 197.302C37.0321 198.589 38.3825 199.851 40.2359 200.12C42.0893 200.389 43.7438 199.564 43.9314 198.277Z" fill="#3F3D56"/>
<path d="M15.8222 182.589C16.0098 181.301 14.6594 180.04 12.806 179.77C10.9526 179.501 9.29801 180.326 9.11042 181.614C8.92283 182.901 10.2732 184.163 12.1266 184.432C13.98 184.702 15.6346 183.876 15.8222 182.589Z" fill="#FF6584"/>
<path d="M6.2336 175.282C6.24255 174.1 5.58231 173.137 4.7589 173.131C3.93549 173.125 3.26072 174.078 3.25177 175.26C3.24282 176.442 3.90308 177.405 4.72649 177.411C5.54989 177.417 6.22465 176.464 6.2336 175.282Z" fill="#990ECA"/>
<path d="M2.98191 161.673C2.99086 160.491 2.33061 159.528 1.50721 159.522C0.6838 159.515 0.00904352 160.468 9.30371e-05 161.65C-0.00885745 162.832 0.651388 163.795 1.47479 163.802C2.2982 163.808 2.97296 162.855 2.98191 161.673Z" fill="#3F3D56"/>
<path d="M28.268 185.624C28.2769 184.443 27.6167 183.479 26.7933 183.473C25.9699 183.467 25.2951 184.42 25.2862 185.602C25.2772 186.784 25.9374 187.747 26.7609 187.753C27.5843 187.759 28.259 186.806 28.268 185.624Z" fill="#990ECA"/>
<path d="M17.6044 190.941C17.6134 189.759 16.9531 188.796 16.1297 188.789C15.3063 188.783 14.6315 189.736 14.6226 190.918C14.6136 192.1 15.2739 193.063 16.0973 193.069C16.9207 193.075 17.5955 192.122 17.6044 190.941Z" fill="#FF6584"/>
<path d="M32.4485 200.766C32.4575 199.584 31.7972 198.621 30.9738 198.615C30.1504 198.609 29.4757 199.562 29.4667 200.744C29.4578 201.926 30.118 202.889 30.9414 202.895C31.7648 202.901 32.4396 201.948 32.4485 200.766Z" fill="#3F3D56"/>
</g>
<defs>
<clipPath id="clip0_1_814">
<rect width="258" height="307" fill="white"/>
</clipPath>
</defs>
</svg>
